<?xml version="1.0" encoding="UTF-8"?>
<svg version="1.1" xmlns="http://www.w3.org/2000/svg" width="3633" height="3633">
<circle 
    cx="1816.5" 
    cy="1816.5" 
    r="1816.5" 
    fill="#333333"
  />
<path d="M0 0 C1.37182617 2.2043457 1.37182617 2.2043457 2.79296875 5.17578125 C3.33211914 6.2942041 3.87126953 7.41262695 4.42675781 8.56494141 C5.0143803 9.81379452 5.60126991 11.06299267 6.1875 12.3125 C6.80934017 13.62169137 7.43141587 14.93077089 8.05371094 16.23974609 C27.36308535 57.0433533 44.86686902 98.72182745 60.53369141 141.05224609 C61.84075052 144.57989111 63.17134982 148.09813795 64.51171875 151.61328125 C72.821142 173.42463027 80.28438605 195.49736322 87.3125 217.75 C87.56125885 218.53707336 87.8100177 219.32414673 88.0663147 220.1350708 C92.83572479 235.25465675 97.38486637 250.42115923 101.4375 265.75 C103.30021091 272.74440105 105.18749012 279.72589865 107.22045898 286.67285156 C114.6878483 312.20995007 120.49270631 338.13805118 125.97802734 364.15917969 C126.85462649 368.31739285 127.7400696 372.47367096 128.62796021 376.62948608 C129.35172955 380.0194006 130.07241762 383.40996483 130.79223633 386.80072021 C131.13167848 388.39873454 131.47181541 389.99660149 131.81274414 391.59429932 C135.79697693 410.2922778 138.86775495 429.106844 141.85180664 447.98754883 C142.42937671 451.63618345 143.01243152 455.28391374 143.59570312 458.93164062 C148.04230575 486.90445812 151.59278044 514.92011326 154.34108734 543.1048317 C154.56662271 545.41727063 154.79368142 547.72955696 155.02081299 550.0418396 C156.92111225 569.44641643 158.67120075 588.85014761 159.875 608.3125 C159.93043976 609.19226501 159.98587952 610.07203003 160.04299927 610.97845459 C161.97496182 642.343165 162.1885069 673.75072989 162.18530273 705.16357422 C162.18522177 709.286666 162.19213957 713.40964594 162.20581055 717.53271484 C162.32904454 755.38164975 161.1206467 793.07627139 158.125 830.8125 C157.99760941 832.45412109 157.99760941 832.45412109 157.86764526 834.12890625 C155.3462736 866.57755961 151.87645756 898.82099658 147.27807617 931.03979492 C146.8803944 933.84311972 146.49582678 936.64823304 146.109375 939.453125 C139.49433091 986.55254287 130.88202984 1033.39812558 119.58654785 1079.59912109 C118.96679845 1082.1359018 118.35004108 1084.67339992 117.73339844 1087.2109375 C111.86870574 1111.3018698 105.60374335 1135.23292843 98.58599854 1159.01416016 C97.75806089 1161.81988655 96.93297936 1164.62645094 96.10772705 1167.43296814 C95.68299869 1168.87703036 95.2579922 1170.3210108 94.83270264 1171.76490784 C93.52150881 1176.21795815 92.2231384 1180.67456822 90.9296875 1185.1328125 C86.16930902 1201.40789608 80.81054888 1217.37704943 75.03601074 1233.31750488 C73.09634656 1238.68938146 71.25822087 1244.09245821 69.43261719 1249.50390625 C47.67308792 1313.83017776 19.51479073 1376.03043472 -10.75 1436.75 C-11.45795212 1438.17394073 -11.45795212 1438.17394073 -12.1802063 1439.62664795 C-18.74308287 1452.8090479 -25.61852664 1465.78815024 -32.72747803 1478.68371582 C-34.35887308 1481.65323197 -35.96223407 1484.63650576 -37.55859375 1487.625 C-44.21287287 1500.06177967 -51.15900791 1512.28168884 -58.42236328 1524.37255859 C-59.96330316 1526.93888403 -61.49634126 1529.50976772 -63.02734375 1532.08203125 C-69.68819257 1543.25513842 -76.47118594 1554.35050091 -83.36425781 1565.38183594 C-84.42301474 1567.07647912 -85.47978797 1568.77236395 -86.53417969 1570.46972656 C-94.60700544 1583.44742911 -103.0724295 1596.14808021 -111.625 1608.8125 C-112.40961609 1609.97543579 -112.40961609 1609.97543579 -113.21008301 1611.16186523 C-122.70684555 1625.22490894 -132.42069518 1639.13161498 -142.375 1652.875 C-142.90552979 1653.60783203 -143.43605957 1654.34066406 -143.98266602 1655.09570312 C-145.65268585 1657.3989093 -147.32567257 1659.69992364 -149 1662 C-149.56477051 1662.77633789 -150.12954102 1663.55267578 -150.71142578 1664.35253906 C-158.74213014 1675.37294115 -166.96281219 1686.22486174 -175.38769531 1696.94677734 C-176.88485532 1698.85336663 -178.37698384 1700.76375297 -179.8671875 1702.67578125 C-186.31356972 1710.9340883 -192.89571033 1719.07815402 -199.5234375 1727.19140625 C-200.83047541 1728.7923548 -202.13423356 1730.39597976 -203.4375 1732 C-212.10045492 1742.6430589 -221.02780124 1753.06254278 -229.97265625 1763.46875 C-231.96975955 1765.79367848 -233.9560592 1768.12715881 -235.93359375 1770.46875 C-241.78432608 1777.37891823 -247.79162934 1784.0996604 -254.01708984 1790.67553711 C-256.89145612 1793.71532541 -259.70881538 1796.78718147 -262.453125 1799.9453125 C-266.02248202 1804.05217853 -269.70930917 1808.03735594 -273.4375 1812 C-274.09492188 1812.70060547 -274.75234375 1813.40121094 -275.4296875 1814.12304688 C-279.27284321 1818.20592418 -283.17096468 1822.21608071 -287.17466736 1826.14222717 C-288.93521932 1827.93406802 -290.57084036 1829.78300003 -292.20141602 1831.69311523 C-296.04948935 1836.11658835 -300.12708537 1840.27146593 -304.27734375 1844.41015625 C-305.04752335 1845.18129257 -305.81770294 1845.95242889 -306.61122131 1846.74693298 C-308.22941373 1848.36580153 -309.84885212 1849.98342551 -311.46948242 1851.59985352 C-313.93067232 1854.05568718 -316.38647809 1856.51681365 -318.84179688 1858.97851562 C-320.42415867 1860.56021653 -322.00683067 1862.14160717 -323.58984375 1863.72265625 C-324.67615334 1864.81200218 -324.67615334 1864.81200218 -325.78440857 1865.9233551 C-329.81665315 1869.93737833 -333.93997732 1873.78081987 -338.26185608 1877.48204041 C-340.80620392 1879.70407575 -343.13974768 1882.08287413 -345.5 1884.5 C-349.16271712 1888.25097537 -352.94913404 1891.73443075 -356.91210938 1895.16601562 C-360.35580289 1898.19092508 -363.67275656 1901.34821666 -367 1904.5 C-374.3272954 1911.44089506 -381.88846249 1918.07215817 -389.5625 1924.625 C-394.58066027 1928.91682066 -399.57799909 1933.23165134 -404.5625 1937.5625 C-413.6567244 1945.45473583 -422.77874274 1953.30280269 -432.21875 1960.78125 C-435.07580205 1963.0604713 -437.90760557 1965.36850479 -440.73779297 1967.6809082 C-448.38944322 1973.92882549 -456.14292521 1980.0136573 -464 1986 C-466.02117553 1987.56205733 -468.04200014 1989.12456881 -470.0625 1990.6875 C-497.28032306 2011.64690387 -525.25242336 2031.52088571 -553.72680664 2050.73217773 C-556.43593746 2052.56144494 -559.14084182 2054.39684939 -561.84570312 2056.23242188 C-573.34113373 2064.00804634 -585.00189129 2071.45795333 -596.84902954 2078.6859436 C-599.76157297 2080.46525503 -602.66203793 2082.2635728 -605.5625 2084.0625 C-613.44749874 2088.90701079 -621.38575635 2093.66264763 -629.33203125 2098.40576172 C-631.08326287 2099.45220594 -632.83330458 2100.5006446 -634.58203125 2101.55126953 C-650.49774744 2111.11217112 -666.68389351 2120.14635181 -683 2129 C-683.91401581 2129.49696381 -683.91401581 2129.49696381 -684.84649658 2130.00396729 C-719.24499027 2148.70117048 -754.22623062 2166.43132804 -790.04589844 2182.24951172 C-793.4488119 2183.7528268 -796.84297674 2185.27495653 -800.23535156 2186.80187988 C-820.23089798 2195.79733826 -840.42433791 2204.19248659 -860.85015869 2212.1607666 C-862.96787161 2212.98745804 -865.08438402 2213.81715901 -867.20068359 2214.64746094 C-902.56570269 2228.50279861 -938.48363882 2240.72038451 -974.66574097 2252.25512695 C-976.26080916 2252.76412072 -977.85545644 2253.27443492 -979.44973755 2253.78588867 C-989.18536086 2256.90885433 -998.91784616 2259.91297946 -1008.8125 2262.5 C-1011.06521521 2263.09723757 -1013.31781786 2263.69489983 -1015.5703125 2264.29296875 C-1016.66375977 2264.58220215 -1017.75720703 2264.87143555 -1018.88378906 2265.16943359 C-1022.48594498 2266.12951934 -1026.07884555 2267.12050122 -1029.67114258 2268.11669922 C-1059.24035952 2276.29291619 -1088.98602996 2283.65186902 -1119 2290 C-1119.69641602 2290.14826233 -1120.39283203 2290.29652466 -1121.11035156 2290.44927979 C-1146.13075136 2295.77490411 -1171.31135407 2300.03689173 -1196.56152344 2304.1171875 C-1201.1716567 2304.86290611 -1205.77757361 2305.63091887 -1210.3828125 2306.40625 C-1257.91127333 2314.28711122 -1306.12720315 2318.66839989 -1354.1875 2321.6875 C-1355.15545502 2321.74843842 -1356.12341003 2321.80937683 -1357.12069702 2321.87216187 C-1362.80956253 2322.22569 -1368.4993365 2322.55225641 -1374.1913147 2322.8515625 C-1376.01407058 2322.94789416 -1377.83665881 2323.04747382 -1379.6590271 2323.15087891 C-1400.7658671 2324.32653938 -1421.90222786 2324.15307637 -1443.03393555 2324.13037109 C-1448.34135303 2324.12470715 -1453.64872003 2324.1280481 -1458.95613575 2324.1337986 C-1492.68030181 2324.16504922 -1526.27818119 2323.65493998 -1559.9375 2321.375 C-1561.18149567 2321.29174469 -1562.42549133 2321.20848938 -1563.70718384 2321.12271118 C-1612.00245293 2317.84401793 -1660.19160428 2312.59636745 -1708 2305 C-1709.46098114 2304.76860321 -1709.46098114 2304.76860321 -1710.95147705 2304.53253174 C-1768.17196082 2295.43761354 -1825.34441311 2283.73014959 -1881.08984375 2267.828125 C-1883.97620194 2267.00677206 -1886.86452871 2266.19255659 -1889.75314331 2265.37918091 C-1961.07647058 2245.28054651 -2030.96250452 2220.79150267 -2098.81420898 2190.9597168 C-2100.83624237 2190.07190118 -2102.85997173 2189.18813889 -2104.88476562 2188.30664062 C-2145.18228218 2170.75018532 -2185.23441386 2151.85791431 -2223.58105469 2130.34619141 C-2226.15994205 2128.91098905 -2228.7533057 2127.5052831 -2231.3515625 2126.10546875 C-2261.8923505 2109.64520912 -2291.81834287 2091.7674618 -2321 2073 C-2322.36197241 2072.12889568 -2323.72395153 2071.25780186 -2325.0859375 2070.38671875 C-2342.94241219 2058.9291693 -2360.59713874 2047.13561904 -2378 2035 C-2378.66483398 2034.53706543 -2379.32966797 2034.07413086 -2380.01464844 2033.59716797 C-2390.66272652 2026.16961893 -2401.14086386 2018.52543633 -2411.57080078 2010.79541016 C-2414.01986576 2008.98531731 -2416.47559138 2007.18465246 -2418.93359375 2005.38671875 C-2427.85543583 1998.85552865 -2436.66869866 1992.22425641 -2445.31738281 1985.33544922 C-2447.66613158 1983.4713088 -2450.02963906 1981.62626349 -2452.39208984 1979.77954102 C-2459.00243532 1974.60829849 -2465.5217565 1969.33615316 -2472 1964 C-2473.79157706 1962.54155659 -2475.58324502 1961.08322483 -2477.375 1959.625 C-2482.01391139 1955.83193 -2486.59250666 1951.97267593 -2491.15698242 1948.09082031 C-2494.63204115 1945.14065907 -2498.14435174 1942.24350085 -2501.6875 1939.375 C-2506.13903808 1935.75165505 -2510.42382455 1931.98036128 -2514.66796875 1928.1171875 C-2516.75823889 1926.21948831 -2518.86986115 1924.35266585 -2521 1922.5 C-2524.90207014 1919.10142278 -2528.74192981 1915.63626007 -2532.58203125 1912.16796875 C-2534.5990169 1910.35952443 -2536.63491596 1908.5801266 -2538.6875 1906.8125 C-2543.28466081 1902.80852123 -2547.71718212 1898.62928151 -2552.16333008 1894.45947266 C-2555.18060381 1891.62996519 -2558.20096764 1888.80593851 -2561.26171875 1886.0234375 C-2568.35646437 1879.56701951 -2575.18902166 1872.89210142 -2581.91357422 1866.04956055 C-2585.8684198 1862.0451022 -2589.92567142 1858.2520059 -2594.18969727 1854.57885742 C-2596.57581046 1852.49780631 -2598.82783473 1850.30462659 -2601.0625 1848.0625 C-2601.83722656 1847.29035156 -2602.61195313 1846.51820312 -2603.41015625 1845.72265625 C-2605.41604672 1843.6138996 -2607.32053551 1841.48287941 -2609.21484375 1839.27734375 C-2613.40932261 1834.44680525 -2617.94259228 1829.98541076 -2622.5 1825.5 C-2627.61205732 1820.46870188 -2632.60243933 1815.4221511 -2637.27539062 1809.97851562 C-2640.40789185 1806.38483076 -2643.71556147 1802.95432329 -2647 1799.5 C-2651.58585226 1794.67694848 -2656.08990459 1789.81027752 -2660.45019531 1784.78173828 C-2662.39024841 1782.55134958 -2664.38050303 1780.36921987 -2666.375 1778.1875 C-2669.50422827 1774.72469918 -2672.50500349 1771.19320997 -2675.4375 1767.5625 C-2678.51336588 1763.75912497 -2681.68753166 1760.09917348 -2685 1756.5 C-2689.41511354 1751.69213097 -2693.56654482 1746.72590675 -2697.66308594 1741.64599609 C-2699.77754334 1739.04269591 -2701.92124135 1736.46370508 -2704.06030273 1733.88061523 C-2710.38895436 1726.23225286 -2716.59799019 1718.50451446 -2722.6953125 1710.67089844 C-2723.97805353 1709.02810659 -2725.26866216 1707.39187447 -2726.5625 1705.7578125 C-2743.4598284 1684.40314007 -2759.78964451 1662.60191902 -2775.39794922 1640.28759766 C-2777.17885994 1637.74460261 -2778.96620135 1635.20619169 -2780.75390625 1632.66796875 C-2782.02359277 1630.86208832 -2783.29312656 1629.0561005 -2784.5625 1627.25 C-2785.45678711 1625.98071655 -2785.45678711 1625.98071655 -2786.36914062 1624.68579102 C-2792.6845842 1615.68046994 -2792.6845842 1615.68046994 -2794 1613 C-2792.69204145 1609.07612434 -2791.2626032 1608.7265064 -2787.69140625 1606.734375 C-2786.56524902 1606.09943115 -2785.4390918 1605.4644873 -2784.27880859 1604.81030273 C-2783.04005672 1604.12350331 -2781.8012867 1603.4367366 -2780.5625 1602.75 C-2779.28668728 1602.03367412 -2778.01146657 1601.31629291 -2776.73681641 1600.59790039 C-2774.1093667 1599.11756612 -2771.47988874 1597.64093264 -2768.84912109 1596.16650391 C-2763.16255782 1592.97305482 -2757.51907265 1589.70528068 -2751.875 1586.4375 C-2749.72664702 1585.19646826 -2747.5782094 1583.95558302 -2745.4296875 1582.71484375 C-2743.83979004 1581.79614502 -2743.83979004 1581.79614502 -2742.21777344 1580.85888672 C-2736.81329355 1577.73675395 -2731.40652588 1574.61858796 -2726 1571.5 C-2723.8333225 1570.25001878 -2721.66665583 1569.00001879 -2719.5 1567.75 C-2654.50000001 1530.25 -2654.50000001 1530.25 -2651.24951172 1528.37475586 C-2649.08442929 1527.12564482 -2646.91939018 1525.87645871 -2644.75439453 1524.62719727 C-2639.31384294 1521.48797691 -2633.87252784 1518.35009437 -2628.4296875 1515.21484375 C-2617.97793801 1509.19252671 -2607.53700452 1503.15330663 -2597.125 1497.0625 C-2587.85500223 1491.64078822 -2578.54168248 1486.29795085 -2569.21154785 1480.98077393 C-2560.0871716 1475.77954871 -2550.99867226 1470.51972122 -2541.93310547 1465.21655273 C-2531.40915375 1459.06233258 -2520.84619863 1452.97630004 -2510.28222656 1446.89111328 C-2504.85340058 1443.76319852 -2499.42680719 1440.63141552 -2494 1437.5 C-2491.83334417 1436.24998121 -2489.6666775 1434.99998122 -2487.5 1433.75 C-2486.4275 1433.13125 -2485.355 1432.5125 -2484.25 1431.875 C-2292.5 1321.25 -2292.5 1321.25 -2289.24951172 1319.37475586 C-2287.08442929 1318.12564482 -2284.91939018 1316.87645871 -2282.75439453 1315.62719727 C-2277.31384294 1312.48797691 -2271.87252784 1309.35009437 -2266.4296875 1306.21484375 C-2255.97793801 1300.19252671 -2245.53700452 1294.15330663 -2235.125 1288.0625 C-2225.85500223 1282.64078822 -2216.54168248 1277.29795085 -2207.21154785 1271.98077393 C-2198.0871716 1266.77954871 -2188.99867226 1261.51972122 -2179.93310547 1256.21655273 C-2169.40915375 1250.06233258 -2158.84619863 1243.97630004 -2148.28222656 1237.89111328 C-2142.85340058 1234.76319852 -2137.42680719 1231.63141552 -2132 1228.5 C-2129.83334417 1227.24998121 -2127.6666775 1225.99998122 -2125.5 1224.75 C-2124.4275 1224.13125 -2123.355 1223.5125 -2122.25 1222.875 C-2112.49999999 1217.25 -2112.49999999 1217.25 -2109.24731445 1215.37353516 C-2107.08950197 1214.12858718 -2104.93178647 1212.8834711 -2102.77416992 1211.63818359 C-2097.22283408 1208.43447349 -2091.66963459 1205.2340637 -2086.11328125 1202.0390625 C-2084.98229004 1201.38808594 -2083.85129883 1200.73710937 -2082.68603516 1200.06640625 C-2080.46641112 1198.78905422 -2078.24605295 1197.51297692 -2076.02490234 1196.23828125 C-2071.36985875 1193.55899564 -2066.73464375 1190.8638925 -2062.17578125 1188.0234375 C-2061.47735107 1187.59015137 -2060.7789209 1187.15686523 -2060.05932617 1186.71044922 C-2058.28474789 1185.59996593 -2056.52072175 1184.47266637 -2054.7578125 1183.34375 C-2052 1182 -2052 1182 -2049.84765625 1182.0390625 C-2047.4309734 1183.29594195 -2046.0764522 1184.79671669 -2044.3125 1186.875 C-2043.61511719 1187.6896875 -2042.91773438 1188.504375 -2042.19921875 1189.34375 C-2039.22822745 1192.93215867 -2036.29423521 1196.54999453 -2033.359375 1200.16796875 C-2030.13036878 1204.04384542 -2026.73494333 1207.75260749 -2023.3203125 1211.46484375 C-2021.42718797 1213.53325758 -2019.57748296 1215.62405876 -2017.75 1217.75 C-2007.82385653 1229.1006242 -1997.27135455 1239.8310979 -1986.625 1250.5 C-1986.0614682 1251.06612 -1985.4979364 1251.63223999 -1984.91732788 1252.21551514 C-1979.3240445 1257.82903788 -1973.73063286 1263.39720692 -1967.69921875 1268.54589844 C-1965.1251032 1270.74869042 -1962.66656888 1273.06582535 -1960.1875 1275.375 C-1955.54442811 1279.66430703 -1950.76558383 1283.72678619 -1945.83984375 1287.69140625 C-1943.28158922 1289.77108772 -1940.76816397 1291.89094876 -1938.26416016 1294.03491211 C-1931.91226939 1299.4700644 -1925.41178115 1304.65530197 -1918.73632812 1309.68896484 C-1916.92899644 1311.05361208 -1915.12848186 1312.42694872 -1913.328125 1313.80078125 C-1889.28334602 1332.07603693 -1864.10399537 1348.81467064 -1838 1364 C-1837.13004395 1364.50708496 -1836.26008789 1365.01416992 -1835.36376953 1365.53662109 C-1781.05020835 1397.05359275 -1722.59463482 1422.82960723 -1661.89648438 1439.21679688 C-1659.86473767 1439.7661768 -1657.8349412 1440.32279611 -1655.80664062 1440.88476562 C-1589.36284288 1459.23373893 -1521.32778028 1467.35389897 -1452.5 1467.375 C-1451.73481804 1467.37604485 -1450.96963608 1467.37708969 -1450.18126678 1467.3781662 C-1431.32773752 1467.4018671 -1412.65615488 1466.90909156 -1393.86125183 1465.24658203 C-1390.03388239 1464.9167402 -1386.20324547 1464.64070448 -1382.37185669 1464.36225891 C-1367.14836206 1463.24058855 -1352.05998407 1460.84605122 -1336.97216797 1458.59179688 C-1333.52587793 1458.07690614 -1330.07785601 1457.57492663 -1326.62890625 1457.078125 C-1324.87755235 1456.82327249 -1323.12624496 1456.56810004 -1321.375 1456.3125 C-1320.63161377 1456.20558838 -1319.88822754 1456.09867676 -1319.12231445 1455.98852539 C-1315.65343634 1455.47164359 -1312.23433735 1454.85540027 -1308.81298828 1454.08203125 C-1307.62910019 1453.81595818 -1307.62910019 1453.81595818 -1306.42129517 1453.54450989 C-1305.22275406 1453.27497749 -1305.22275406 1453.27497749 -1304 1453 C-1302.52558547 1452.67449055 -1301.05097788 1452.34985421 -1299.57617188 1452.02612305 C-1295.43783751 1451.11604626 -1291.30118968 1450.19851189 -1287.16503906 1449.27856445 C-1285.40313192 1448.88780069 -1283.64076741 1448.49909285 -1281.87792969 1448.11254883 C-1270.79347719 1445.68016194 -1259.89420493 1442.9470275 -1249.04470825 1439.61932373 C-1247.01962669 1439.00594475 -1244.98923923 1438.41611708 -1242.95483398 1437.83447266 C-1231.04190719 1434.42226796 -1219.29433262 1430.54930009 -1207.5625 1426.5625 C-1206.53698029 1426.21407043 -1205.51146057 1425.86564087 -1204.4548645 1425.50665283 C-1175.11606716 1415.49842691 -1146.90337238 1403.46639188 -1119 1390 C-1118.05495605 1389.5467334 -1117.10991211 1389.0934668 -1116.13623047 1388.62646484 C-1102.41315933 1382.02000023 -1089.17455135 1374.63371622 -1076 1367 C-1074.40792725 1366.08323486 -1074.40792725 1366.08323486 -1072.78369141 1365.14794922 C-1050.44284362 1352.25454247 -1028.75138616 1338.34020059 -1008 1323 C-1007.37657715 1322.53964355 -1006.7531543 1322.07928711 -1006.11083984 1321.60498047 C-984.55679767 1305.65593393 -963.56296053 1288.92955266 -943.9140625 1270.66796875 C-941.75943133 1268.69529705 -939.58564862 1266.78012401 -937.37084961 1264.87792969 C-932.77715537 1260.8627619 -928.45947558 1256.60364114 -924.15234375 1252.28515625 C-923.33681534 1251.47058456 -922.52128693 1250.65601288 -921.68104553 1249.8167572 C-919.96801992 1248.10440807 -918.25624035 1246.39081158 -916.5456543 1244.67602539 C-913.94496448 1242.06997985 -911.33898044 1239.46931478 -908.73242188 1236.86914062 C-907.05957514 1235.19563301 -905.38703866 1233.52181518 -903.71484375 1231.84765625 C-902.94486557 1231.0797023 -902.17488739 1230.31174835 -901.38157654 1229.52052307 C-896.71982904 1224.83876766 -892.30475407 1220.01021061 -888 1215 C-886.54554483 1213.39231627 -885.08779105 1211.78760285 -883.625 1210.1875 C-879.80402862 1205.94911157 -876.15752669 1201.60120897 -872.5703125 1197.1640625 C-870.64819539 1194.7871519 -868.70034731 1192.43324057 -866.7421875 1190.0859375 C-858.8470229 1180.60778251 -851.29118867 1170.94901356 -844 1161 C-843.49678223 1160.31921387 -842.99356445 1159.63842773 -842.47509766 1158.93701172 C-823.16942262 1132.80468449 -805.81866417 1105.36643682 -790 1077 C-789.49533203 1076.10039551 -788.99066406 1075.20079102 -788.47070312 1074.27392578 C-764.78039671 1031.90472393 -746.23442157 987.55263732 -731.1875 941.4375 C-730.91446045 940.60268097 -730.6414209 939.76786194 -730.36010742 938.90774536 C-726.81116711 928.02469507 -723.56475983 917.0932896 -720.56481934 906.04699707 C-719.71713865 902.97486451 -718.80947833 899.92063077 -717.91015625 896.86328125 C-715.76333335 889.37258376 -714.07073054 881.80204454 -712.4375 874.1875 C-712.20864105 873.12911423 -712.20864105 873.12911423 -711.97515869 872.04934692 C-709.92541614 862.56396162 -707.93496278 853.08410011 -706.40527344 843.49804688 C-705.89533688 840.35487166 -705.3562734 837.21696619 -704.8203125 834.078125 C-702.07952606 817.81899645 -699.87905356 801.58916476 -698.30419922 785.16845703 C-698.01654775 782.17235694 -697.715512 779.1779339 -697.41015625 776.18359375 C-697.23106362 774.39329977 -697.05263492 772.6029392 -696.875 770.8125 C-696.79934814 770.06081543 -696.72369629 769.30913086 -696.64575195 768.53466797 C-696.40632596 766.0246178 -696.19875558 763.51360873 -696 761 C-695.91242432 759.94329102 -695.82484863 758.88658203 -695.73461914 757.79785156 C-694.60684374 741.93755312 -694.70751875 726.0177969 -694.6875 710.125 C-694.68577412 708.93390247 -694.68577412 708.93390247 -694.68401337 707.71874237 C-694.64053328 664.41107566 -697.79475224 621.73121335 -705 579 C-705.12870483 578.23568665 -705.25740967 577.47137329 -705.39001465 576.68389893 C-713.16796865 530.91930229 -725.6748795 486.25780949 -741.56054688 442.6784668 C-741.99689453 441.47746338 -742.43324219 440.27645996 -742.8828125 439.0390625 C-743.26840332 437.98928223 -743.65399414 436.93950195 -744.05126953 435.85791016 C-744.91985281 433.24143154 -745.53002672 430.71311267 -746 428 C-745.36835938 427.64921387 -744.73671875 427.29842773 -744.0859375 426.93701172 C-730.33297865 419.29014861 -716.66630949 411.51909961 -703.08984375 403.5625 C-696.78429581 399.8678669 -690.45705564 396.21147319 -684.125 392.5625 C-683.04484619 391.93996338 -681.96469238 391.31742676 -680.85180664 390.67602539 C-678.66203666 389.41423174 -676.47217645 388.15259466 -674.28222656 386.89111328 C-668.85340058 383.76319852 -663.42680719 380.63141552 -658 377.5 C-655.83334417 376.24998121 -653.6666775 374.99998122 -651.5 373.75 C-650.4275 373.13125 -649.355 372.5125 -648.25 371.875 C-482.49999997 276.24999998 -482.49999997 276.24999998 -479.24951172 274.37475586 C-477.08442929 273.12564482 -474.91939018 271.87645871 -472.75439453 270.62719727 C-467.31384294 267.48797691 -461.87252784 264.35009437 -456.4296875 261.21484375 C-445.97793801 255.19252671 -435.53700452 249.15330663 -425.125 243.0625 C-415.85500223 237.64078822 -406.54168248 232.29795085 -397.21154785 226.98077393 C-388.0871716 221.77954871 -378.99867226 216.51972122 -369.93310547 211.21655273 C-359.40915375 205.06233258 -348.84619863 198.97630004 -338.28222656 192.89111328 C-332.85340058 189.76319852 -327.42680719 186.63141552 -322 183.5 C-319.83334417 182.24998121 -317.6666775 180.99998122 -315.5 179.75 C-314.4275 179.13125 -313.355 178.5125 -312.25 177.875 C-146.49999999 82.25 -146.49999999 82.25 -143.24951172 80.37475586 C-141.08442929 79.12564482 -138.91939018 77.87645871 -136.75439453 76.62719727 C-131.31384294 73.48797691 -125.87252784 70.35009437 -120.4296875 67.21484375 C-109.97793801 61.19252671 -99.53700452 55.15330663 -89.125 49.0625 C-80.44737338 43.98724631 -71.73378487 38.97769668 -63 34 C-54.18601085 28.97558 -45.38859422 23.92453694 -36.625 18.8125 C-35.66053955 18.25103271 -34.6960791 17.68956543 -33.70239258 17.11108398 C-28.68415791 14.18176941 -23.69102862 11.21631165 -18.72265625 8.203125 C-17.20260986 7.28696411 -17.20260986 7.28696411 -15.65185547 6.35229492 C-13.71715234 5.18417528 -11.78751342 4.00761462 -9.86376953 2.8215332 C-9.00509277 2.30421631 -8.14641602 1.78689941 -7.26171875 1.25390625 C-6.50850342 0.79314697 -5.75528809 0.3323877 -4.97924805 -0.14233398 C-3 -1 -3 -1 0 0 Z " fill="#FEFEFE" transform="translate(3271,1109)"/>
<path d="M0 0 C2.10137452 -0.0032275 4.20274883 -0.00659258 6.30412292 -0.01008606 C10.70918291 -0.01605083 15.11422338 -0.01792933 19.51928711 -0.01733398 C23.94511078 -0.01725366 28.3708289 -0.02404833 32.79663086 -0.0378418 C60.73610897 -0.12357535 88.53969851 0.35868119 116.43055344 2.04869461 C119.2547665 2.21818892 122.07964602 2.37529637 124.90454102 2.53295898 C129.86973641 2.8165637 134.831653 3.13590226 139.79296875 3.48046875 C140.66776886 3.54077271 141.54256897 3.60107666 142.44387817 3.66320801 C207.52032911 8.20420938 272.39944014 16.5960077 336.41796875 29.16796875 C337.71226807 29.42203995 337.71226807 29.42203995 339.03271484 29.6812439 C345.24879666 30.90561707 351.45980301 32.15409978 357.66796875 33.41796875 C358.61241852 33.61016998 359.55686829 33.80237122 360.52993774 34.00039673 C377.05383746 37.37572189 393.43934881 41.16960028 409.79638672 45.27001953 C414.36120478 46.40183838 418.93817258 47.47765893 423.5168457 48.55175781 C434.67720463 51.17691081 445.68934253 54.15546879 456.68994141 57.37939453 C460.60272707 58.51043961 464.52946134 59.58927728 468.45581055 60.67211914 C481.8191929 64.36696333 495.09082157 68.30893033 508.30712891 72.49926758 C509.77914519 72.96559335 511.25150302 73.43084178 512.72412109 73.89526367 C537.03569731 81.56276078 561.14320595 89.71777711 585.10546875 98.41796875 C586.22649994 98.82349976 587.34753113 99.22903076 588.50253296 99.64685059 C605.31556362 105.74191222 621.89787492 112.32130745 638.41796875 119.16796875 C639.95001447 119.79988312 641.48214713 120.4315868 643.0144043 121.06298828 C688.72928586 139.93803907 734.36389871 160.26452432 777.89648438 183.81152344 C780.90072668 185.42767083 783.91701314 187.02028467 786.93359375 188.61328125 C800.45483689 195.76863007 813.77652398 203.19130928 826.953125 210.96875 C831.7479153 213.79328404 836.59688997 216.50084691 841.48046875 219.16796875 C858.07324038 228.27539308 874.05902763 238.47966942 890.01806641 248.64501953 C892.47236445 250.20248761 894.93455405 251.7468098 897.3984375 253.2890625 C920.55348174 267.83136092 943.13584579 283.32486068 965.41796875 299.16796875 C966.52640137 299.95445801 966.52640137 299.95445801 967.65722656 300.75683594 C978.39755942 308.39367672 988.9159029 316.29969665 999.375 324.31640625 C1003.14952855 327.20738277 1006.94801702 330.06275798 1010.765625 332.89648438 C1018.18809394 338.40799958 1025.39123172 344.14560705 1032.5390625 350.0078125 C1036.18492286 352.99260528 1039.8865234 355.90010977 1043.60546875 358.79296875 C1049.30990341 363.24031652 1054.8441141 367.86159837 1060.34375 372.55859375 C1063.12529963 374.9306591 1065.95145536 377.24289587 1068.79296875 379.54296875 C1078.5214165 387.46774808 1087.93853359 395.77343146 1097.234375 404.19921875 C1099.2353486 406.00331659 1101.25747185 407.77803892 1103.29296875 409.54296875 C1107.21258442 412.95682756 1111.0396428 416.46895627 1114.86376953 419.98876953 C1117.94421515 422.82270247 1121.04465273 425.63117163 1124.16796875 428.41796875 C1135.0239022 438.18137216 1145.61234377 448.20290449 1155.83837891 458.62524414 C1159.61425263 462.45313397 1163.51257377 466.05286993 1167.58349609 469.56494141 C1169.97614721 471.6557249 1172.23777311 473.85528498 1174.48046875 476.10546875 C1175.25519531 476.87761719 1176.02992188 477.64976562 1176.828125 478.4453125 C1178.83401547 480.55406915 1180.73850426 482.68508934 1182.6328125 484.890625 C1186.82729136 489.7211635 1191.36056103 494.18255799 1195.91796875 498.66796875 C1201.03002607 503.69926687 1206.02040808 508.74581765 1210.69335938 514.18945312 C1213.8258606 517.78313799 1217.13353022 521.21364546 1220.41796875 524.66796875 C1225.00382101 529.49102027 1229.50787334 534.35769123 1233.86816406 539.38623047 C1235.80821716 541.61661917 1237.79847178 543.79874888 1239.79296875 545.98046875 C1242.92219702 549.44326957 1245.92297224 552.97475878 1248.85546875 556.60546875 C1251.93133463 560.40884378 1255.10550041 564.06879527 1258.41796875 567.66796875 C1262.83308229 572.47583778 1266.98451357 577.442062 1271.08105469 582.52197266 C1273.19551209 585.12527284 1275.3392101 587.70426367 1277.47827148 590.28735352 C1283.80692311 597.93571589 1290.01595894 605.66345429 1296.11328125 613.49707031 C1297.39602228 615.13986216 1298.68663091 616.77609428 1299.98046875 618.41015625 C1316.8798498 639.76742281 1333.21148417 661.57118466 1348.8203125 683.88916016 C1350.58582334 686.40738726 1352.3609309 688.91869796 1354.13671875 691.4296875 C1355.39727051 693.21735267 1356.6576894 695.00511153 1357.91796875 696.79296875 C1358.7996875 698.03711548 1358.7996875 698.03711548 1359.69921875 699.30639648 C1362.86649666 703.81216091 1365.77478745 708.33509313 1368.41796875 713.16796875 C1352.87563516 722.25728819 1337.30188022 731.28978452 1321.70019531 740.27685547 C1316.27136933 743.40477023 1310.84477594 746.53655323 1305.41796875 749.66796875 C1303.25131292 750.91798754 1301.08464625 752.16798753 1298.91796875 753.41796875 C1297.84546875 754.03671875 1296.77296875 754.65546875 1295.66796875 755.29296875 C1129.91796873 850.91796876 1129.91796873 850.91796876 1126.66748047 852.79321289 C1124.50239804 854.04232393 1122.33735893 855.29151004 1120.17236328 856.54077148 C1114.73181169 859.67999184 1109.29049659 862.81787438 1103.84765625 865.953125 C1093.39590676 871.97544204 1082.95497327 878.01466212 1072.54296875 884.10546875 C1063.27297098 889.52718053 1053.95965123 894.8700179 1044.6295166 900.18719482 C1035.50514035 905.38842004 1026.41664101 910.64824753 1017.35107422 915.95141602 C1006.8271225 922.10563617 996.26416738 928.19166871 985.70019531 934.27685547 C980.27136933 937.40477023 974.84477594 940.53655323 969.41796875 943.66796875 C967.25131292 944.91798754 965.08464625 946.16798753 962.91796875 947.41796875 C961.84546875 948.03671875 960.77296875 948.65546875 959.66796875 949.29296875 C767.91796876 1059.91796874 767.91796876 1059.91796874 764.66748047 1061.79321289 C762.50239804 1063.04232393 760.33735893 1064.29151004 758.17236328 1065.54077148 C752.73181169 1068.67999184 747.29049659 1071.81787438 741.84765625 1074.953125 C731.39590676 1080.97544204 720.95497327 1087.01466212 710.54296875 1093.10546875 C701.86534213 1098.18072244 693.15175362 1103.19027207 684.41796875 1108.16796875 C675.60398761 1113.19238418 666.80606454 1118.24258843 658.04296875 1123.35546875 C657.0792334 1123.91766113 656.11549805 1124.47985352 655.12255859 1125.05908203 C650.10337578 1127.9936473 645.09800305 1130.94999916 640.10546875 1133.9296875 C639.08759277 1134.53594971 638.0697168 1135.14221191 637.02099609 1135.7668457 C635.07621388 1136.9267318 633.13372002 1138.09046582 631.19384766 1139.25854492 C630.33194824 1139.77263916 629.47004883 1140.2867334 628.58203125 1140.81640625 C627.8235791 1141.27192871 627.06512695 1141.72745117 626.28369141 1142.19677734 C624.41796875 1143.16796875 624.41796875 1143.16796875 622.41796875 1143.16796875 C620.859375 1141.4375 620.859375 1141.4375 618.98046875 1138.98046875 C614.43762721 1133.16072039 609.69737301 1127.52943455 604.90625 1121.91503906 C603.36402989 1120.10465076 601.82826639 1118.28891717 600.29296875 1116.47265625 C593.45308542 1108.40195045 593.45308542 1108.40195045 586.07543945 1100.82641602 C584.50015257 1099.25020099 583.08303347 1097.62138761 581.65234375 1095.9140625 C576.24512741 1089.69615517 570.34471244 1083.94598826 564.51196289 1078.1315918 C562.48533895 1076.11032607 560.46411328 1074.08377301 558.44335938 1072.05664062 C552.26890715 1065.87900219 546.08266697 1059.82020562 539.41796875 1054.16796875 C537.46319699 1052.39434842 535.53697733 1050.59210821 533.60546875 1048.79296875 C528.96239686 1044.50366172 524.18355258 1040.44118256 519.2578125 1036.4765625 C516.69978085 1034.39706222 514.18654081 1032.27744593 511.68286133 1030.13354492 C504.78114128 1024.22850024 497.68999715 1018.6101756 490.41796875 1013.16796875 C489.37793701 1012.38897217 489.37793701 1012.38897217 488.31689453 1011.59423828 C471.74865538 999.21774557 454.96708196 987.12273954 437.41796875 976.16796875 C436.43699219 975.55179688 435.45601562 974.935625 434.4453125 974.30078125 C431.11784318 972.23131001 427.77304157 970.19222625 424.41796875 968.16796875 C423.6501709 967.70406738 422.88237305 967.24016602 422.09130859 966.76220703 C403.37927022 955.49176082 384.31625785 944.79921567 364.65820312 935.25927734 C362.06707371 933.99703361 359.48534676 932.71628815 356.90234375 931.4375 C342.13854814 924.18475416 327.15617918 917.70603838 311.90136719 911.57104492 C309.54653762 910.6225444 307.19569501 909.66409434 304.84863281 908.6965332 C295.16899001 904.74013041 285.35253433 901.36137887 275.41796875 898.10546875 C273.87876276 897.59743974 272.3396998 897.08897718 270.80078125 896.58007812 C267.78113462 895.58180814 264.76020582 894.58755352 261.73852539 893.59545898 C258.95645688 892.68004119 256.1798595 891.75068024 253.40795898 890.80493164 C245.50356334 888.11340943 237.57871848 885.76617556 229.48046875 883.73046875 C228.46146484 883.46943359 227.44246094 883.20839844 226.39257812 882.93945312 C224.12770544 882.36133247 221.86139177 881.78884021 219.59399414 881.22070312 C216.40382076 880.42107536 213.22005211 879.59846792 210.03686523 878.77148438 C195.89755045 875.12746342 181.72506203 872.12237777 167.35546875 869.54296875 C166.28893066 869.34998199 165.22239258 869.15699524 164.12353516 868.9581604 C147.34230927 865.93066311 130.59619977 863.11504033 113.62249756 861.39520264 C111.23105477 861.14870241 108.84145214 860.88749357 106.45166016 860.62548828 C15.59289822 850.81143936 -76.89235037 858.62256674 -192.58203125 889.16796875 C-193.24031921 889.37121765 -193.89860718 889.57446655 -194.57684326 889.78387451 C-255.56601754 908.6263018 -314.14080613 934.78209889 -368.58203125 968.16796875 C-369.89953369 968.97379395 -369.89953369 968.97379395 -371.24365234 969.79589844 C-395.63703346 984.78129768 -419.28317501 1001.20686539 -441.58203125 1019.16796875 C-442.22382324 1019.68359375 -442.86561523 1020.19921875 -443.52685547 1020.73046875 C-455.56605055 1030.41537115 -467.48919887 1040.20637451 -478.8515625 1050.68359375 C-481.01346924 1052.65065053 -483.1963006 1054.57943393 -485.40234375 1056.49609375 C-489.56832287 1060.13160845 -493.62174338 1063.87513558 -497.64453125 1067.66796875 C-498.37333496 1068.35503906 -499.10213867 1069.04210938 -499.85302734 1069.75 C-504.86459748 1074.49586256 -509.81628722 1079.29770367 -514.70703125 1084.16796875 C-515.29750244 1084.75384766 -515.88797363 1085.33972656 -516.49633789 1085.94335938 C-520.09135539 1089.55114509 -523.47425039 1093.29406317 -526.80517578 1097.14599609 C-529.76286825 1100.5117022 -532.868845 1103.73499153 -535.95703125 1106.98046875 C-541.00098294 1112.32159593 -545.84635821 1117.7344651 -550.42578125 1123.484375 C-552.39022959 1125.92925907 -554.41007361 1128.31608943 -556.45629883 1130.69262695 C-562.98144739 1138.28310589 -569.03919978 1146.19642625 -575.07128906 1154.18115234 C-576.41241969 1155.94490817 -577.7681324 1157.6950215 -579.13671875 1159.4375 C-602.46916125 1189.23417657 -622.71798511 1221.83994221 -640.58203125 1255.16796875 C-641.25516357 1256.4216626 -641.25516357 1256.4216626 -641.94189453 1257.70068359 C-656.11176975 1284.21034052 -668.67671524 1311.16220531 -679.75619507 1339.08843994 C-680.31445936 1340.49419897 -680.87492335 1341.89908613 -681.43740845 1343.30316162 C-686.19985572 1355.2023506 -690.44110604 1367.22707769 -694.39453125 1379.41796875 C-694.84582901 1380.80775436 -694.84582901 1380.80775436 -695.3062439 1382.22561646 C-709.35820056 1425.68059732 -719.34250421 1470.16965358 -725.10742188 1515.48095703 C-725.52746161 1518.74404345 -725.97651997 1522.00088033 -726.44140625 1525.2578125 C-727.2745385 1531.21628347 -727.95326251 1537.18474689 -728.58203125 1543.16796875 C-728.71883301 1544.42625488 -728.85563477 1545.68454102 -728.99658203 1546.98095703 C-734.26880943 1596.76680055 -733.29440149 1648.04627201 -727.84442139 1697.75640869 C-727.60200497 1699.98439541 -727.37094196 1702.21316064 -727.14501953 1704.44287109 C-721.29579557 1760.97118946 -707.14485674 1815.72632163 -688.66796875 1869.296875 C-688.40798096 1870.05421432 -688.14799316 1870.81155365 -687.88012695 1871.59184265 C-686.64690367 1875.16683643 -685.38407232 1878.72384156 -684.03613281 1882.25732422 C-683.79690094 1882.89331039 -683.55766907 1883.52929657 -683.31118774 1884.18455505 C-682.66872917 1885.88195772 -682.01193053 1887.57391363 -681.35400391 1889.26538086 C-680.5006817 1892.47383998 -680.34939461 1894.08686642 -681.58203125 1897.16796875 C-683.60961914 1898.79858398 -683.60961914 1898.79858398 -686.3046875 1900.2265625 C-687.30556396 1900.76982178 -688.30644043 1901.31308105 -689.33764648 1901.87280273 C-690.97455444 1902.73047241 -690.97455444 1902.73047241 -692.64453125 1903.60546875 C-694.95032926 1904.85341907 -697.25499037 1906.10347196 -699.55859375 1907.35546875 C-700.14738815 1907.67281479 -700.73618256 1907.99016083 -701.34281921 1908.31712341 C-707.14643715 1911.44920071 -712.83746874 1914.75944449 -718.51953125 1918.10546875 C-720.51014934 1919.27259148 -722.50103745 1920.4392538 -724.4921875 1921.60546875 C-725.98709717 1922.48138672 -725.98709717 1922.48138672 -727.51220703 1923.375 C-732.81530375 1926.47233913 -738.1359806 1929.53910733 -743.45703125 1932.60546875 C-744.53718506 1933.22800537 -745.61733887 1933.85054199 -746.73022461 1934.49194336 C-748.91999459 1935.75373701 -751.1098548 1937.01537409 -753.29980469 1938.27685547 C-758.72863067 1941.40477023 -764.15522406 1944.53655323 -769.58203125 1947.66796875 C-771.74868708 1948.91798754 -773.91535375 1950.16798753 -776.08203125 1951.41796875 C-777.15453125 1952.03671875 -778.22703125 1952.65546875 -779.33203125 1953.29296875 C-945.08203127 2048.91796876 -945.08203127 2048.91796876 -948.33251953 2050.79321289 C-950.49760196 2052.04232393 -952.66264107 2053.29151004 -954.82763672 2054.54077148 C-960.26818831 2057.67999184 -965.70950341 2060.81787438 -971.15234375 2063.953125 C-981.60409324 2069.97544204 -992.04502673 2076.01466212 -1002.45703125 2082.10546875 C-1011.72702902 2087.52718053 -1021.04034877 2092.8700179 -1030.3704834 2098.18719482 C-1039.49485965 2103.38842004 -1048.58335899 2108.64824753 -1057.64892578 2113.95141602 C-1068.1728775 2120.10563617 -1078.73583262 2126.19166871 -1089.29980469 2132.27685547 C-1094.72863067 2135.40477023 -1100.15522406 2138.53655323 -1105.58203125 2141.66796875 C-1107.74868708 2142.91798754 -1109.91535375 2144.16798753 -1112.08203125 2145.41796875 C-1113.15453125 2146.03671875 -1114.22703125 2146.65546875 -1115.33203125 2147.29296875 C-1307.08203125 2257.91796875 -1307.08203125 2257.91796875 -1310.33251953 2259.79321289 C-1312.49760196 2261.04232393 -1314.66264107 2262.29151004 -1316.82763672 2263.54077148 C-1322.26818831 2266.67999184 -1327.70950341 2269.81787438 -1333.15234375 2272.953125 C-1343.60409361 2278.97544225 -1354.04499827 2285.01471039 -1364.45703125 2291.10546875 C-1374.41838474 2296.93096705 -1384.4262005 2302.67270624 -1394.45410156 2308.38256836 C-1399.81980063 2311.43895615 -1405.17824323 2314.50589291 -1410.5078125 2317.625 C-1411.3949292 2318.14360596 -1412.2820459 2318.66221191 -1413.19604492 2319.1965332 C-1414.82472298 2320.15093696 -1416.45132396 2321.10889754 -1418.07543945 2322.07104492 C-1423.36247306 2325.16796875 -1423.36247306 2325.16796875 -1425.58203125 2325.16796875 C-1436.83856911 2302.41384478 -1447.60412117 2279.51242656 -1457.58203125 2256.16796875 C-1457.89398437 2255.43858093 -1458.2059375 2254.70919312 -1458.52734375 2253.95770264 C-1481.50370926 2200.16128536 -1501.94199942 2144.94699407 -1518.74853516 2088.90625 C-1519.77847764 2085.52258423 -1520.86579733 2082.15929034 -1521.95751953 2078.79516602 C-1524.7308075 2070.23049395 -1527.12298554 2061.60421731 -1529.31494141 2052.87231445 C-1530.74619185 2047.20664716 -1532.32522807 2041.60237379 -1533.99609375 2036.00390625 C-1536.51743602 2027.52779182 -1538.76219178 2018.99938139 -1540.89453125 2010.41796875 C-1541.08423492 2009.65805634 -1541.2739386 2008.89814392 -1541.46939087 2008.11520386 C-1545.74996219 1990.92299275 -1549.50495786 1973.62685594 -1553.13671875 1956.28771973 C-1553.56464707 1954.25071993 -1553.99626664 1952.21454846 -1554.4296875 1950.17871094 C-1558.02794229 1933.26952085 -1561.30535991 1916.32621074 -1564.21942139 1899.28570557 C-1564.610918 1896.99926256 -1565.00488959 1894.71325275 -1565.39892578 1892.42724609 C-1575.82940285 1831.78893658 -1582.89676989 1770.82930287 -1586.45301056 1709.39331245 C-1586.53846928 1707.91932387 -1586.62450595 1706.44536867 -1586.71114349 1704.9714489 C-1588.28288969 1678.17571809 -1588.91889382 1651.46278461 -1588.84018326 1624.62258911 C-1588.83185743 1621.66880361 -1588.82648401 1618.71502357 -1588.82162476 1615.76123047 C-1588.76559244 1585.86111108 -1588.51900166 1556.01542072 -1586.58203125 1526.16796875 C-1586.50190796 1524.9292804 -1586.42178467 1523.69059204 -1586.3392334 1522.41436768 C-1584.15046797 1488.84748597 -1581.50505195 1455.34844985 -1577.19824219 1421.97851562 C-1576.67790198 1417.9439848 -1576.18255435 1413.9068664 -1575.69589233 1409.8681488 C-1573.46552261 1391.37050247 -1570.86571845 1372.94632795 -1567.95703125 1354.54296875 C-1567.81082336 1353.6113089 -1567.66461548 1352.67964905 -1567.51397705 1351.71975708 C-1566.06561196 1342.53382632 -1564.51557047 1333.45109301 -1562.31787109 1324.40966797 C-1561.28850071 1319.87483721 -1560.5115011 1315.30666065 -1559.72286987 1310.72494507 C-1558.37938404 1302.93177066 -1556.87928511 1295.1730125 -1555.33203125 1287.41796875 C-1555.18307404 1286.66983917 -1555.03411682 1285.92170959 -1554.88064575 1285.15090942 C-1552.09319723 1271.20998773 -1548.84391568 1257.41531786 -1545.42285156 1243.61572266 C-1544.01812258 1237.85568124 -1542.71021584 1232.0738677 -1541.39453125 1226.29296875 C-1538.17677641 1212.25969386 -1534.40820771 1198.4586717 -1530.34423828 1184.64868164 C-1528.8785031 1179.65882258 -1527.43199868 1174.66671946 -1526.06640625 1169.6484375 C-1506.24200575 1096.80796239 -1479.45671585 1026.00273171 -1448.58203125 957.16796875 C-1448.25914124 956.44806763 -1447.93625122 955.7281665 -1447.60357666 954.9864502 C-1439.65918271 937.29555318 -1431.57962722 919.70242705 -1422.73876953 902.4375 C-1421.30051284 899.61562702 -1419.89467643 896.77838424 -1418.48999023 893.93969727 C-1414.85411804 886.59935151 -1411.06540367 879.34573828 -1407.22900391 872.10839844 C-1404.71103541 867.34866966 -1402.27062237 862.56256436 -1399.89453125 857.73046875 C-1397.29067694 852.47386145 -1394.47533934 847.40197497 -1391.453125 842.375 C-1387.68827342 835.92209155 -1384.1987935 829.31295899 -1380.65234375 822.73828125 C-1375.88485146 813.91118978 -1371.1029603 805.15153975 -1365.75 796.6640625 C-1363.45559759 793.00595412 -1361.28664774 789.27662923 -1359.10668945 785.54956055 C-1351.89522943 773.22593632 -1344.32325108 761.16432667 -1336.58203125 749.16796875 C-1335.58967378 747.62380713 -1334.59747788 746.07954167 -1333.60546875 744.53515625 C-1319.1390434 722.05361723 -1304.11961433 699.92263352 -1288.58203125 678.16796875 C-1288.08026367 677.46285156 -1287.57849609 676.75773438 -1287.06152344 676.03125 C-1279.3917343 665.26358132 -1271.47540237 654.70315871 -1263.43359375 644.2109375 C-1260.54236974 640.43608583 -1257.68676131 636.63726387 -1254.8527832 632.81933594 C-1248.7936465 624.65933332 -1242.45419159 616.75890267 -1236.00390625 608.90576172 C-1234.09371603 606.57115766 -1232.21094012 604.21528882 -1230.33203125 601.85546875 C-1223.90209161 593.8012646 -1217.3481266 585.85881959 -1210.67089844 578.0090332 C-1207.73978305 574.55713788 -1204.86513894 571.06610208 -1202.01953125 567.54296875 C-1198.14623853 562.78276822 -1194.07443133 558.23992091 -1189.921875 553.72265625 C-1187.92368277 551.5409906 -1185.96054236 549.33785566 -1184.01953125 547.10546875 C-1180.68657119 543.27295496 -1177.29367469 539.49688905 -1173.890625 535.7265625 C-1172.40083845 534.07544542 -1170.91366248 532.42196731 -1169.4296875 530.765625 C-1163.79049888 524.47379973 -1158.08391373 518.24660781 -1152.3343811 512.05575562 C-1151.20748065 510.84175838 -1150.08156434 509.62684648 -1148.95687866 508.41079712 C-1137.36985204 495.89828982 -1125.3761154 483.80573279 -1113.30664062 471.76220703 C-1110.59606099 469.05738933 -1107.89008835 466.34801353 -1105.18535614 463.63735008 C-1103.06632948 461.514691 -1100.94490404 459.39444212 -1098.82276917 457.2748909 C-1097.82384752 456.27662773 -1096.82564406 455.27764528 -1095.82823181 454.27787399 C-1090.75069523 449.19093597 -1085.64389847 444.20750854 -1080.17492676 439.54067993 C-1078.20708905 437.84485443 -1076.38585435 436.0362141 -1074.58203125 434.16796875 C-1071.4995762 431.04385891 -1068.30693353 428.14095787 -1064.98046875 425.28125 C-1061.79056172 422.47059901 -1058.68947234 419.56917461 -1055.58203125 416.66796875 C-1050.65592325 412.07705784 -1045.69990683 407.5454645 -1040.58203125 403.16796875 C-1039.55982822 402.29174554 -1038.53769979 401.4154353 -1037.515625 400.5390625 C-1035.74902576 399.0246906 -1033.98197996 397.51085445 -1032.21362305 395.99853516 C-1028.39618683 392.73193875 -1024.59678451 389.44560691 -1020.80786133 386.14599609 C-1014.16296453 380.36170543 -1007.43369116 374.70716892 -1000.58203125 369.16796875 C-998.85205368 367.75229245 -997.12290888 366.33559795 -995.39453125 364.91796875 C-994.03328125 363.80615234 -994.03328125 363.80615234 -992.64453125 362.671875 C-990.39114468 360.82950154 -988.14177853 358.98263848 -985.89453125 357.1328125 C-978.62507486 351.16690693 -971.27301595 345.35863674 -963.71948242 339.75634766 C-958.65196216 335.99274714 -953.67220264 332.12776912 -948.70703125 328.23046875 C-940.56483573 321.85839178 -932.2380963 315.77785574 -923.82324219 309.77246094 C-921.59321103 308.1759724 -919.37143285 306.56868757 -917.15234375 304.95703125 C-903.09324092 294.74740787 -888.95740321 284.62354639 -874.44921875 275.05859375 C-871.8514364 273.34561465 -869.26907788 271.61113319 -866.68823242 269.87280273 C-836.69159459 249.72397904 -805.76848462 231.03687071 -774.53417969 212.88720703 C-771.78839594 211.28814905 -769.04764171 209.6808727 -766.30859375 208.0703125 C-758.24487214 203.34234038 -750.17313283 198.8654153 -741.765625 194.7734375 C-738.66136449 193.20797607 -735.69110403 191.51290148 -732.70703125 189.73046875 C-727.57504876 186.67975261 -722.33399336 183.98550605 -716.98120117 181.35302734 C-712.56587132 179.17609977 -708.20157026 176.92239019 -703.85888672 174.60400391 C-693.33694897 168.98835063 -682.64609872 163.79082777 -671.85546875 158.71337891 C-668.41480926 157.08902221 -664.98269421 155.44743606 -661.55078125 153.8046875 C-594.80246898 121.96593602 -525.16308824 94.00014617 -454.23095703 72.96484375 C-450.91495434 71.96729234 -447.61968293 70.9112196 -444.32421875 69.84814453 C-426.65385643 64.15394515 -408.7093418 59.398451 -390.72924805 54.79321289 C-385.21405599 53.37880817 -379.70923866 51.93994331 -374.22265625 50.41796875 C-357.78316756 45.86168217 -341.23366898 42.1189736 -324.5524292 38.58654785 C-321.36427604 37.9092764 -318.17829907 37.22195783 -314.9921875 36.53515625 C-309.20961252 35.28927454 -303.4252098 34.05224557 -297.63964844 32.8203125 C-294.83060132 32.22100127 -292.02259131 31.61708309 -289.21484375 31.01171875 C-287.60810673 30.66781073 -286.00133841 30.32404893 -284.39453125 29.98046875 C-283.40972778 29.76644409 -283.40972778 29.76644409 -282.4050293 29.5480957 C-275.23290959 28.0239653 -268.0018516 26.81099386 -260.77957153 25.55239868 C-258.7220895 25.19247005 -256.66544132 24.82822555 -254.60913086 24.46166992 C-201.39428915 14.99057713 -147.84787245 8.45098312 -93.95703125 4.35546875 C-93.26530823 4.30244976 -92.57358521 4.24943077 -91.86090088 4.19480515 C-76.18891884 2.9940628 -60.5286708 1.96388286 -44.81503296 1.49980164 C-39.57713502 1.34188962 -34.37787006 1.08429785 -29.1550293 0.65185547 C-19.44593927 -0.07089371 -9.73122768 0.00357011 0 0 Z " fill="#EC1B24" transform="translate(1788.58203125,199.83203125)"/>
<path d="M0 0 C2.72409682 0.00534661 5.44802734 0.00002105 8.17211914 -0.00634766 C27.65410086 -0.01675277 46.89052734 1.01564658 66.23657227 3.31787109 C67.15862457 3.42608185 68.08067688 3.5342926 69.03067017 3.64578247 C140.68857962 12.12795267 211.17468141 35.12453835 273.56689453 71.47851562 C276.19807061 72.99970996 278.84512831 74.49014459 281.49523926 75.97799683 C289.08180543 80.25594107 296.38450935 84.89186186 303.61157227 89.75537109 C304.18891113 90.14199921 304.76625 90.52862732 305.36108398 90.92697144 C319.88662928 100.66145053 334.07494353 110.82263836 347.42407227 122.13037109 C348.49012701 123.02271827 349.55655342 123.91462157 350.62329102 124.80615234 C356.47541775 129.71149862 362.24744174 134.6891138 367.8918457 139.83374023 C369.46457658 141.26014588 371.04452061 142.67869181 372.63549805 144.0847168 C379.1465798 149.85165514 385.33949635 155.89148926 391.47509766 162.05102539 C393.11647023 163.69778513 394.76316046 165.33909205 396.41040039 166.97998047 C401.958341 172.52405699 407.36034919 178.13533095 412.42407227 184.13037109 C413.38510782 185.23688672 414.34731535 186.34238574 415.31079102 187.44677734 C472.17354913 253.18337445 514.88172515 333.20023001 534.42407227 418.13037109 C534.66818848 419.1690332 534.91230469 420.20769531 535.16381836 421.27783203 C549.47081539 482.68661246 554.23027882 549.53700724 545.42407227 612.13037109 C545.32225647 612.86954773 545.22044067 613.60872437 545.11553955 614.37030029 C542.24353493 635.18789424 538.71646486 655.77621656 533.42407227 676.13037109 C533.13306641 677.2613623 532.84206055 678.39235352 532.54223633 679.55761719 C522.86376938 716.82227538 510.03367962 752.80014457 492.84887695 787.26611328 C491.63030865 789.715778 490.43101149 792.17295239 489.24438477 794.63818359 C476.34686294 821.27600962 460.1928863 846.50035781 442.42407227 870.13037109 C441.96806641 870.73800293 441.51206055 871.34563477 441.04223633 871.97167969 C435.36050558 879.51322752 429.46665533 886.87522956 423.42407227 894.13037109 C423.00544922 894.63536133 422.58682617 895.14035156 422.15551758 895.66064453 C413.26951906 906.36468278 404.01569601 916.68712951 394.08422852 926.43505859 C392.21315762 928.29477909 392.21315762 928.29477909 389.92407227 931.19287109 C387.36851373 934.19565237 384.65535277 936.59828298 381.66235352 939.14599609 C379.14316327 941.37941432 376.78815183 943.7336084 374.42407227 946.13037109 C370.24592715 950.34655698 365.95039842 954.29490524 361.42407227 958.13037109 C360.50368164 958.92830078 359.58329102 959.72623047 358.63500977 960.54833984 C350.56418233 967.51236224 342.1975377 974.04099445 333.6730957 980.43896484 C331.43974427 982.11858476 329.21708779 983.81169681 326.99438477 985.50537109 C269.57485393 1028.90140486 202.90528827 1058.4060908 133.42407227 1076.13037109 C132.38299316 1076.40042969 131.34191406 1076.67048828 130.26928711 1076.94873047 C110.23701277 1082.0876512 89.89162083 1085.31112648 69.42407227 1088.13037109 C68.12872559 1088.3126123 66.83337891 1088.49485352 65.4987793 1088.68261719 C23.56708871 1094.29772032 -21.63112441 1093.16953075 -63.57592773 1088.13037109 C-64.5965329 1088.01015594 -64.5965329 1088.01015594 -65.63775635 1087.88751221 C-97.69858423 1084.07502214 -129.87878768 1077.12620336 -160.57592773 1067.13037109 C-162.22915039 1066.59573242 -162.22915039 1066.59573242 -163.91577148 1066.05029297 C-230.70554928 1044.242139 -292.6677464 1010.2282699 -346.57592773 965.13037109 C-347.47021484 964.384729 -347.47021484 964.384729 -348.38256836 963.62402344 C-362.08554041 952.16081501 -374.9289314 939.86372306 -387.57592773 927.25537109 C-388.0708371 926.76314056 -388.56574646 926.27091003 -389.07565308 925.76376343 C-394.79701598 920.06593789 -400.33941032 914.2795106 -405.57592773 908.13037109 C-406.62097793 906.93866422 -407.66783531 905.74853954 -408.71655273 904.56005859 C-415.46738155 896.85937519 -421.99054178 889.03324046 -428.21655273 880.90185547 C-429.56662952 879.14248816 -430.93033109 877.39430886 -432.29467773 875.64599609 C-450.20901238 852.45138484 -465.35640409 827.40044157 -479.22143555 801.63085938 C-480.35086596 799.54585104 -481.49780969 797.47347908 -482.66186523 795.40771484 C-493.98122221 774.98988739 -502.77216905 753.08914772 -510.57592773 731.13037109 C-510.97908203 730.01758789 -511.38223633 728.90480469 -511.79760742 727.75830078 C-525.81723891 689.01842745 -534.76297479 649.27610629 -539.51342773 608.38037109 C-539.66622696 607.07708359 -539.66622696 607.07708359 -539.82211304 605.74746704 C-542.10541413 585.93143125 -542.78580959 566.12945042 -542.76342773 546.19287109 C-542.76315582 545.26659912 -542.76288391 544.34032715 -542.76260376 543.38598633 C-542.74053223 526.88848581 -542.09267587 510.56536971 -540.57592773 494.13037109 C-540.4311499 492.48004883 -540.4311499 492.48004883 -540.28344727 490.79638672 C-536.60901118 449.93714008 -527.41217961 410.03155652 -514.57592773 371.13037109 C-514.17857422 369.91172363 -514.17857422 369.91172363 -513.77319336 368.66845703 C-503.64511298 337.82637117 -489.96252442 307.70808763 -473.92993164 279.51171875 C-472.70892085 277.36427208 -471.50624693 275.20764422 -470.30639648 273.04833984 C-454.52380879 245.07597697 -435.31638617 218.59562215 -414.57592773 194.13037109 C-414.0414502 193.49679687 -413.50697266 192.86322266 -412.95629883 192.21044922 C-398.33755198 174.92516381 -382.85915135 157.48111152 -365.55249023 142.82568359 C-363.0673258 140.69413939 -360.67152627 138.4735351 -358.26342773 136.25537109 C-352.86095254 131.33459808 -347.27355193 126.7033662 -341.57592773 122.13037109 C-340.44393987 121.2064766 -339.31245286 120.2819682 -338.18139648 119.35693359 C-311.61368197 97.72661378 -282.64756963 79.4593705 -252.57592773 63.13037109 C-251.46000244 62.52064453 -250.34407715 61.91091797 -249.19433594 61.28271484 C-240.53469835 56.58266958 -231.75463332 52.28179604 -222.76342773 48.25537109 C-222.10083954 47.95733582 -221.43825134 47.65930054 -220.75558472 47.35223389 C-207.55593942 41.42818951 -194.19311741 36.02675561 -180.57592773 31.13037109 C-179.58077148 30.77249512 -178.58561523 30.41461914 -177.56030273 30.04589844 C-162.81593315 24.8086559 -147.87623295 20.66838744 -132.6940918 16.90771484 C-129.84507309 16.19746777 -127.00267641 15.46640098 -124.16186523 14.72412109 C-83.78354381 4.23186951 -41.67120735 -0.09674537 0 0 Z " fill="#FEFEFE" transform="translate(1813.575927734375,1270.86962890625)"/></svg>
